# xmcd
#
# Track frame offsets: 
#        150
#        18142
#        32110
#        51610
#        70862
#        88575
#        100035
#        123435
#        140775
#        159065
#        179320
#
# Disc length: 2642 seconds
#
# Revision: 1
# Processed by: cddbd v1.5.2PL0 Copyright (c) Steve Scherf et al.
# Submitted via: ExactAudioCopy v1.3
#
DISCID=8d0a500b
DTITLE=Soda - Soda
DYEAR=1998
DGENRE=Pop
TTITLE0=Parę Chwil
TTITLE1=Nie Mamy Adresu
TTITLE2=Cieplej
TTITLE3=Twój Cień
TTITLE4=Spalona Miłość
TTITLE5=Powiedzieć
TTITLE6=Ryby
TTITLE7=Kiedy Jesteś Tu Ze Mną
TTITLE8=To Nie Mogłem Być Ja
TTITLE9=Chciałbym Wiedzieć
TTITLE10=Noc
EXTD=
EXTT0=
EXTT1=
EXTT2=
EXTT3=
EXTT4=
EXTT5=
EXTT6=
EXTT7=
EXTT8=
EXTT9=
EXTT10=
PLAYORDER=
